<svg width="28" height="28" viewBox="0 0 28 28" fill="none" xmlns="http://www.w3.org/2000/svg">
<path d="M22.995 8.38251C22.9812 6.85223 22.3641 5.3892 21.2779 4.31119C20.1917 3.23318 18.7241 2.62725 17.1937 2.62501H8.74998C8.54025 2.62231 8.33653 2.69504 8.17592 2.82995C8.01532 2.96485 7.90852 3.15296 7.87498 3.36001L4.88248 22.1288C4.86378 22.253 4.87208 22.3799 4.90681 22.5007C4.94153 22.6215 5.00188 22.7334 5.08373 22.8288C5.16505 22.9264 5.26667 23.0052 5.38151 23.0596C5.49635 23.114 5.62166 23.1427 5.74873 23.1438H9.36248L9.16998 24.36C9.14953 24.4861 9.15693 24.6151 9.19165 24.738C9.22637 24.8609 9.28757 24.9747 9.37096 25.0714C9.45435 25.1681 9.55789 25.2454 9.67433 25.2979C9.79077 25.3503 9.91728 25.3767 10.045 25.375H14.1137C14.3222 25.378 14.5249 25.3065 14.6853 25.1734C14.8457 25.0403 14.9533 24.8542 14.9887 24.6488L15.8637 19.3025H18.62C20.3451 19.2956 21.9974 18.606 23.2156 17.3845C24.4338 16.163 25.1189 14.5089 25.1212 12.7838V12.5388C25.1203 11.7273 24.9272 10.9275 24.5576 10.2051C24.188 9.48266 23.6525 8.85807 22.995 8.38251ZM9.49373 4.37501H17.1937C18.1117 4.37783 19.0017 4.69168 19.7184 5.26535C20.4351 5.83902 20.9362 6.63865 21.14 7.53376C20.7614 7.44498 20.3738 7.40093 19.985 7.40251H12.6875C12.4777 7.39981 12.274 7.47254 12.1134 7.60745C11.9528 7.74235 11.846 7.93046 11.8125 8.13751L11.2962 11.375C11.2591 11.6071 11.3157 11.8444 11.4535 12.0347C11.5914 12.2251 11.7992 12.3529 12.0312 12.39C12.2633 12.4271 12.5006 12.3706 12.691 12.2327C12.8813 12.0949 13.0091 11.8871 13.0462 11.655L13.4487 9.13501H20.0025C20.4219 9.13721 20.8373 9.21732 21.2275 9.37126C21.0611 10.741 20.4003 12.0029 19.3691 12.9197C18.3378 13.8365 17.0073 14.3451 15.6275 14.35H11.5675C11.359 14.347 11.1563 14.4185 10.9959 14.5516C10.8355 14.6848 10.7279 14.8708 10.6925 15.0763L9.62498 21.3938H6.77248L9.49373 4.37501ZM23.3712 12.7838C23.3689 14.0448 22.8682 15.2538 21.9781 16.1471C21.0881 17.0404 19.881 17.5456 18.62 17.5525H15.12C14.9115 17.5495 14.7088 17.621 14.5484 17.7541C14.388 17.8873 14.2804 18.0733 14.245 18.2788L13.37 23.625H11.06L11.2525 22.4088L12.3025 16.1175H15.61C17.2435 16.1127 18.8295 15.5677 20.121 14.5675C21.4124 13.5672 22.3368 12.1679 22.75 10.5875C23.1561 11.1569 23.3734 11.8394 23.3712 12.5388V12.7838Z" fill="#396AFF"/>
</svg>
